<?xml version="1.0" encoding="utf-8"?>
<!-- Generator: Adobe Illustrator 22.0.1, SVG Export Plug-In . SVG Version: 6.00 Build 0)  -->
<svg version="1.1" xmlns="http://www.w3.org/2000/svg" xmlns:xlink="http://www.w3.org/1999/xlink" x="0px" y="0px"
	 viewBox="0 0 380.7 380.7" style="enable-background:new 0 0 380.7 380.7;" xml:space="preserve">
<style type="text/css">
	.st0{fill:#435466;}
	.st1{display:none;fill:#4DBA87;}
	.st2{fill:none;stroke:#4DBA87;stroke-width:5;stroke-miterlimit:10;}
	.st3{fill:#4DBA87;}
</style>
<g id="svg2" xmlns:cc="http://creativecommons.org/ns#" xmlns:dc="http://purl.org/dc/elements/1.1/" xmlns:rdf="http://www.w3.org/1999/02/22-rdf-syntax-ns#" xmlns:svg="http://www.w3.org/2000/svg">
	<g>
		<path class="st0" d="M136.9,303.7L168,77.5h108.1c13.6,0,25.9,0.9,36.8,2.7c10.9,1.8,20.4,4.8,28.6,9.1
			c8.2,4.3,14.6,10.2,19.2,17.6c4.6,7.4,6.9,16.6,6.9,27.5c0,10.7-2.9,20.3-8.6,28.7c-5.8,8.5-12.7,15.3-20.9,20.6
			c11.9,3.1,21.2,9.4,27.8,18.8s9.9,20.4,9.9,33c0,12.4-2.3,22.9-6.8,31.7c-4.5,8.8-11,15.9-19.5,21.2s-18.6,9.2-30.5,11.6
			c-11.8,2.4-25.4,3.6-40.7,3.6L136.9,303.7z M242.2,130.3V168h30.8c7.5,0,13.7-1.7,18.4-5.2c4.7-3.5,7.1-8.3,7.1-14.6
			c0-8-2.5-12.9-7.4-14.9c-4.9-2-12.5-3-22.8-3H242.2z M242.2,209.1v41.8h32.4c10.3,0,18.2-1.5,23.7-4.6c5.5-3,8.3-8.4,8.3-16.2
			c0-9-3.3-14.8-9.9-17.3c-6.6-2.5-16.9-3.8-30.9-3.8H242.2z"/>
	</g>
	<path class="st1" d="M236.7,205.6v48.8h37.8c12,0,21.2-1.8,27.7-5.3c6.5-3.5,9.7-9.8,9.7-18.9c0-10.5-3.9-17.2-11.6-20.2
		c-7.7-2.9-19.8-4.4-36.2-4.4H236.7z"/>
	<path class="st1" d="M238.7,127.9v42.4h34.6c8.5,0,15.4-1.9,20.6-5.8c5.3-3.9,7.9-9.4,7.9-16.4c0-8.9-2.8-14.5-8.3-16.8
		c-5.5-2.2-14.1-3.4-25.6-3.4H238.7z"/>
	<path class="st2" d="M242.2,130.3V168h30.8c7.5,0,13.7-1.7,18.4-5.2c4.7-3.5,7.1-8.3,7.1-14.6c0-8-2.5-12.9-7.4-14.9
		c-4.9-2-12.5-3-22.8-3H242.2z M242.2,209.1v41.8h32.4c10.3,0,18.2-1.5,23.7-4.6c5.5-3,8.3-8.4,8.3-16.2c0-9-3.3-14.8-9.9-17.3
		c-6.6-2.5-16.9-3.8-30.9-3.8H242.2z"/>
	<g id="g10" transform="matrix(1.3333333,0,0,-1.3333333,0,400)">
		<g id="g12" transform="translate(178.0626,235.0086)">
			<path id="path14" class="st3" d="M-52.7,7.3L-75.4-32L-98.1,7.3h-75.5l98.2-170l98.2,170H-52.7z"/>
		</g>
		<g id="g16" transform="translate(178.0626,235.0086)">
			<path id="path18" class="st0" d="M-52.7,7.3L-75.4-32L-98.1,7.3h-36.2l58.9-102l58.9,102H-52.7z"/>
		</g>
	</g>
</g>
<g id="Layer_2">
</g>
</svg>
